<svg width="350" height="350" xmlns="http://www.w3.org/2000/svg">
 <title>3D Photography</title>
  <path d="m45.32666,11.442173c-18.647873,0 -33.88327,15.16647 -33.88327,33.81432l0,259.518837c0,18.647888 15.235413,33.779877 33.88327,33.779877l259.449921,0c18.647858,0 33.779846,-15.131989 33.779846,-33.779877l0,-259.518837c0,-18.647858 -15.131989,-33.81432 -33.779846,-33.81432l-259.449921,0z" id="path2778" fill-rule="nonzero" fill="#bfbfbf"/>
  <g id="svg_1">
   <path d="m199.007965,168.802704c21.646698,0 40.432404,11.788483 50.807648,29.16095l61.148438,0.068939l0,-32.780228c0,-12.202103 -9.927155,-22.094772 -22.094788,-22.094772l-227.876099,0c-12.202118,0 -22.025848,9.89267 -22.025848,22.094772l0.06897,32.504501l109.129547,0.068909c10.444214,-17.303528 29.16095,-29.023102 50.842102,-29.023102" id="path2780" fill-rule="nonzero" fill="#000000"/>
   <path d="m96.11731,132.747879l-20.267914,0l-2.343887,7.30748l24.300797,0l-1.688995,-7.30748z" id="path2782" fill-rule="nonzero" fill="#000000"/>
   <path d="m278.907654,128.852859l-26.98941,0l-4.791229,11.271439l36.158234,0l-4.377594,-11.271439z" id="path2784" fill-rule="nonzero" fill="#000000"/>
   <path d="m186.254333,136.229279l-23.232239,0l0,-11.236969l23.232239,0l0,11.236969zm21.302002,-15.752441l-65.59494,0l-13.511932,19.785339l91.481323,0l-12.374451,-19.785339z" id="path2786" fill-rule="nonzero" fill="#000000"/>
   <path d="m252.986786,203.823441c3.377991,7.445343 5.377197,15.649033 5.377197,24.369736c0,32.780243 -26.575775,59.390503 -59.356018,59.390503c-32.814728,0 -59.390503,-26.61026 -59.390503,-59.390503c0,-8.720703 1.964752,-16.924393 5.377228,-24.404205l-106.027374,0l0,89.482117c0,12.133179 9.82373,22.025848 22.025848,22.025848l227.876099,0c12.167633,0 22.094788,-9.89267 22.094788,-22.025848l0.068939,-89.447647l-58.046204,0z" id="path2788" fill-rule="nonzero" fill="#00ffff"/>
   <path d="m231.374573,208.683594c-0.930664,-1.65451 -2.1026,-3.205627 -3.37796,-4.68782c-6.928345,-8.341537 -17.303558,-13.822159 -28.988647,-13.822159c-11.719513,0 -22.094757,5.446152 -29.023102,13.75322c-1.27536,1.516663 -2.447327,3.067749 -3.44693,4.756729c-3.481354,5.721924 -5.584015,12.340027 -5.584015,19.509583c0,20.957336 17.027832,37.985138 38.054047,37.985138c20.922821,0 37.950623,-17.027802 37.950623,-37.985138c0,-7.169586 -2.068146,-13.787659 -5.584015,-19.509583" id="path2790" fill-rule="nonzero" fill="#0000ff"/>
  </g>
  <text font-weight="bold" font-size="100" x="77.73333" y="100" fill="red" font-family="Sans-serif">3DP</text>
</svg>

